<svg width="197" height="32" viewBox="0 0 197 32" fill="none" xmlns="http://www.w3.org/2000/svg">
<path d="M12.5137 0.429688H18.6865V21.5938C18.6865 24.5612 17.8607 26.9408 16.209 28.7324C14.5573 30.5241 12.4297 31.4199 9.82617 31.4199C7.02669 31.4199 4.8501 30.5871 3.29639 28.9214C1.74268 27.2557 0.96582 24.9391 0.96582 21.9717H7.15967C7.15967 24.8551 8.0485 26.2969 9.82617 26.2969C11.6178 26.2969 12.5137 24.6312 12.5137 21.2998V0.429688ZM37.667 24.7432H29.2476L27.6099 31H21.0801L30.6333 0.429688H36.2812L45.8975 31H39.3047L37.667 24.7432ZM30.5913 19.5991H36.3022L33.4468 8.70215L30.5913 19.5991ZM56.8364 0.429688L62.6104 22.5386L68.3633 0.429688H76.4258V31H70.2319V22.7275L70.7988 9.98291L64.689 31H60.4897L54.3799 9.98291L54.9468 22.7275V31H48.7739V0.429688H56.8364Z" fill="#131336"/>
<path d="M94.3145 22.9795C94.3145 21.7337 93.9925 20.7959 93.3486 20.166C92.7188 19.5221 91.564 18.8573 89.8843 18.1714C86.8188 17.0096 84.6143 15.6519 83.2705 14.0981C81.9268 12.5304 81.2549 10.6828 81.2549 8.55518C81.2549 5.97965 82.1647 3.91504 83.9844 2.36133C85.818 0.79362 88.1416 0.00976562 90.9551 0.00976562C92.8307 0.00976562 94.5034 0.408691 95.9731 1.20654C97.4429 1.9904 98.5697 3.10319 99.3535 4.54492C100.151 5.98665 100.55 7.62435 100.55 9.45801H94.3984C94.3984 8.03027 94.0905 6.94548 93.4746 6.20361C92.8727 5.44775 91.9979 5.06982 90.8501 5.06982C89.7723 5.06982 88.9325 5.39176 88.3306 6.03564C87.7287 6.66553 87.4277 7.51937 87.4277 8.59717C87.4277 9.43701 87.7637 10.1999 88.4355 10.8857C89.1074 11.5576 90.2972 12.2575 92.0049 12.9854C94.9863 14.0632 97.1489 15.3859 98.4927 16.9536C99.8504 18.5213 100.529 20.516 100.529 22.9375C100.529 25.597 99.6825 27.6756 97.9888 29.1733C96.2951 30.6711 93.9925 31.4199 91.0811 31.4199C89.1074 31.4199 87.3088 31.014 85.6851 30.2021C84.0614 29.3903 82.7876 28.2285 81.8638 26.7168C80.9539 25.2051 80.499 23.4204 80.499 21.3628H86.6929C86.6929 23.1265 87.0358 24.4072 87.7217 25.2051C88.4076 26.0029 89.5273 26.4019 91.0811 26.4019C93.2367 26.4019 94.3145 25.2611 94.3145 22.9795ZM124.423 5.57373H116.864V31H110.67V5.57373H103.238V0.429688H124.423V5.57373ZM140.044 24.7432H131.625L129.987 31H123.457L133.01 0.429688H138.658L148.274 31H141.682L140.044 24.7432ZM132.968 19.5991H138.679L135.824 8.70215L132.968 19.5991ZM171.412 20.8169C171.258 24.3022 170.278 26.9408 168.473 28.7324C166.667 30.5241 164.119 31.4199 160.83 31.4199C157.373 31.4199 154.72 30.2861 152.873 28.0186C151.039 25.737 150.122 22.4896 150.122 18.2764V13.1323C150.122 8.93311 151.074 5.69971 152.978 3.43213C154.881 1.15055 157.527 0.00976562 160.914 0.00976562C164.245 0.00976562 166.772 0.940592 168.494 2.80225C170.229 4.6639 171.216 7.3374 171.454 10.8228H165.26C165.204 8.66715 164.868 7.18343 164.252 6.37158C163.651 5.54574 162.538 5.13281 160.914 5.13281C159.262 5.13281 158.094 5.7137 157.408 6.87549C156.722 8.02327 156.358 9.91992 156.316 12.5654V18.3394C156.316 21.3768 156.652 23.4624 157.324 24.5962C158.01 25.73 159.178 26.2969 160.83 26.2969C162.454 26.2969 163.574 25.9049 164.189 25.1211C164.805 24.3232 165.155 22.8885 165.239 20.8169H171.412ZM183.821 19.2002L181.385 22.2656V31H175.212V0.429688H181.385V13.7622L183.338 10.4658L189.028 0.429688H196.586L187.831 13.8672L196.733 31H189.406L183.821 19.2002Z" fill="#0069D9"/>
</svg>
